<svg width="28" height="28" viewBox="0 0 28 28" fill="none" xmlns="http://www.w3.org/2000/svg">
<path d="M16.9168 4.66666H11.0835L8.16683 8.16666H4.66683C4.04799 8.16666 3.4545 8.4125 3.01691 8.85008C2.57933 9.28767 2.3335 9.88116 2.3335 10.5V21C2.3335 21.6188 2.57933 22.2123 3.01691 22.6499C3.4545 23.0875 4.04799 23.3333 4.66683 23.3333H23.3335C23.9523 23.3333 24.5458 23.0875 24.9834 22.6499C25.421 22.2123 25.6668 21.6188 25.6668 21V10.5C25.6668 9.88116 25.421 9.28767 24.9834 8.85008C24.5458 8.4125 23.9523 8.16666 23.3335 8.16666H19.8335L16.9168 4.66666Z" stroke="#18181B" stroke-opacity="0.5" stroke-width="1.5" stroke-linecap="round" stroke-linejoin="round"/>
<path d="M14.0002 18.6667C15.9332 18.6667 17.5002 17.0997 17.5002 15.1667C17.5002 13.2337 15.9332 11.6667 14.0002 11.6667C12.0672 11.6667 10.5002 13.2337 10.5002 15.1667C10.5002 17.0997 12.0672 18.6667 14.0002 18.6667Z" stroke="#18181B" stroke-opacity="0.5" stroke-width="1.5" stroke-linecap="round" stroke-linejoin="round"/>
</svg>
